<svg width="25" height="25" viewBox="0 0 25 25" fill="none" xmlns="http://www.w3.org/2000/svg">
<path d="M20.1311 6.01854C20.8334 7.06947 20.8334 8.53245 20.8334 11.4584C20.8334 14.3844 20.8334 15.8474 20.1311 16.8983C19.8271 17.3532 19.4365 17.7439 18.9816 18.0479C18.0635 18.6613 16.831 18.7389 14.5834 18.7487V18.7501L13.4317 21.0534C13.0478 21.8211 11.9522 21.8211 11.5683 21.0534L10.4167 18.7501V18.7487C8.16908 18.7389 6.93655 18.6613 6.01848 18.0479C5.56352 17.7439 5.17289 17.3532 4.8689 16.8983C4.16669 15.8474 4.16669 14.3844 4.16669 11.4584C4.16669 8.53245 4.16669 7.06947 4.8689 6.01854C5.17289 5.56358 5.56352 5.17295 6.01848 4.86896C7.06941 4.16675 8.53239 4.16675 11.4584 4.16675H13.5417C16.4676 4.16675 17.9306 4.16675 18.9816 4.86896C19.4365 5.17295 19.8271 5.56358 20.1311 6.01854Z" stroke="#33363F" stroke-width="2" stroke-linecap="round" stroke-linejoin="round"/>
<path d="M9.375 9.375L15.625 9.375" stroke="#33363F" stroke-width="2" stroke-linecap="round" stroke-linejoin="round"/>
<path d="M9.375 13.5417H12.5" stroke="#33363F" stroke-width="2" stroke-linecap="round" stroke-linejoin="round"/>
</svg>
