<svg width="25" height="25" viewBox="0 0 25 25" fill="none" xmlns="http://www.w3.org/2000/svg">
<path d="M4.63608 14.4878L11.8784 21.2912C12.1417 21.5385 12.2734 21.6622 12.4307 21.6842C12.4766 21.6907 12.5233 21.6907 12.5692 21.6842C12.7265 21.6622 12.8582 21.5386 13.1215 21.2912L13.1215 21.2912L20.3638 14.4878C22.4015 12.5736 22.649 9.42362 20.9352 7.21473L20.6129 6.7994C18.5627 4.15693 14.4475 4.6001 13.0069 7.61847C12.8034 8.04483 12.1965 8.04483 11.993 7.61847C10.5524 4.6001 6.43717 4.15694 4.38698 6.7994L4.06474 7.21474C2.35095 9.42362 2.5984 12.5736 4.63608 14.4878Z" stroke="#33363F" stroke-width="2"/>
</svg>
