<svg width="41" height="13" viewBox="0 0 41 13" fill="none" xmlns="http://www.w3.org/2000/svg">
<path d="M8.01855 3.1709C8.01855 3.80436 7.82031 4.33529 7.42383 4.76367C7.02734 5.19206 6.5306 5.5179 5.93359 5.74121C6.39844 5.93717 6.70605 6.17643 6.85645 6.45898L7.875 8.40723C8.32161 8.5485 8.6224 8.7194 8.77734 8.91992L8.63379 10H6.26855L4.65527 6.56836C4.514 6.22201 4.3431 6.04883 4.14258 6.04883H3.2334V8.29102C3.90788 8.44141 4.33171 8.6237 4.50488 8.83789L4.36133 10H0.581055L0.444336 8.83789C0.567383 8.67839 0.82487 8.52344 1.2168 8.37305V1.97461C0.829427 1.83789 0.57194 1.68066 0.444336 1.50293L0.581055 0.34082H4.15625C5.02669 0.349935 5.74674 0.443359 6.31641 0.621094C6.88607 0.794271 7.31217 1.08594 7.59473 1.49609C7.87728 1.90169 8.01855 2.45996 8.01855 3.1709ZM4.05371 1.86523H3.2334V4.52441H4.02637C4.66439 4.52441 5.13835 4.42871 5.44824 4.2373C5.7627 4.0459 5.91992 3.70182 5.91992 3.20508C5.91992 2.71289 5.76042 2.36654 5.44141 2.16602C5.12695 1.96549 4.66439 1.86523 4.05371 1.86523ZM12.5166 10.1094C11.3955 10.1094 10.5524 9.81087 9.9873 9.21387C9.4222 8.61686 9.13965 7.7487 9.13965 6.60938C9.13965 5.92122 9.23763 5.32878 9.43359 4.83203C9.62956 4.33073 9.89616 3.94336 10.2334 3.66992C10.8851 3.15039 11.6462 2.89062 12.5166 2.89062C13.0954 2.89062 13.583 2.98633 13.9795 3.17773C14.3805 3.36458 14.6836 3.68132 14.8887 4.12793C15.0983 4.56999 15.2031 5.17383 15.2031 5.93945C15.2031 6.61393 14.8704 6.95117 14.2051 6.95117H11.1699C11.2064 7.53906 11.3568 7.95378 11.6211 8.19531C11.89 8.43685 12.3138 8.55762 12.8926 8.55762C13.207 8.55762 13.5078 8.52116 13.7949 8.44824C14.0866 8.37077 14.2985 8.29557 14.4307 8.22266L14.6289 8.11328L15.0459 9.22754C14.9958 9.28678 14.916 9.36882 14.8066 9.47363C14.7337 9.54199 14.5856 9.6263 14.3623 9.72656C14.139 9.82682 13.8656 9.91569 13.542 9.99316C13.223 10.0706 12.8812 10.1094 12.5166 10.1094ZM11.1836 5.78906L13.3984 5.7002C13.4167 5.58626 13.4258 5.42904 13.4258 5.22852C13.4258 5.04167 13.3506 4.84342 13.2002 4.63379C13.0498 4.42415 12.79 4.31934 12.4209 4.31934C12.0518 4.31934 11.7692 4.43099 11.5732 4.6543C11.3773 4.8776 11.2474 5.25586 11.1836 5.78906ZM19.209 4.31934C18.3522 4.31934 17.9238 5.05534 17.9238 6.52734C17.9238 7.27474 18.0423 7.79655 18.2793 8.09277C18.5163 8.38444 18.8604 8.53027 19.3115 8.53027C20.0088 8.53027 20.6331 8.46419 21.1846 8.33203L21.6084 9.41211C21.3076 9.60807 20.9043 9.77441 20.3984 9.91113C19.8971 10.0433 19.4072 10.1094 18.9287 10.1094C16.9144 10.1094 15.9072 8.94271 15.9072 6.60938C15.9072 5.24219 16.2581 4.26237 16.96 3.66992C17.5843 3.15039 18.3454 2.89062 19.2432 2.89062C20.141 2.89062 20.8861 3.05697 21.4785 3.38965C21.4831 3.43522 21.4854 3.48079 21.4854 3.52637C21.4899 3.57194 21.4922 3.61523 21.4922 3.65625C21.4922 4.18945 21.3714 4.69303 21.1299 5.16699H19.8994C19.7673 4.93001 19.6875 4.65202 19.6602 4.33301C19.6009 4.32845 19.5326 4.32617 19.4551 4.32617C19.3822 4.32161 19.3001 4.31934 19.209 4.31934ZM22.251 4.08008L22.3877 3C22.9163 2.87695 23.404 2.81543 23.8506 2.81543C24.0739 2.81543 24.279 2.81999 24.4658 2.8291C24.6527 2.83366 24.8236 2.84505 24.9785 2.86328V8.44824C25.3431 8.58496 25.6006 8.74219 25.751 8.91992L25.6143 10H22.3877L22.251 8.91992C22.3786 8.74219 22.6361 8.58496 23.0234 8.44824V4.55176C22.6908 4.44238 22.4333 4.28516 22.251 4.08008ZM26.1543 4.08008L26.291 3C26.7923 2.88607 27.2549 2.8291 27.6787 2.8291C27.8838 2.8291 28.0706 2.83366 28.2393 2.84277C28.4124 2.84733 28.5674 2.85417 28.7041 2.86328V3.54688C29.3285 3.10938 29.9961 2.89062 30.707 2.89062C31.6367 2.89062 32.3112 3.15723 32.7305 3.69043C33.1543 4.21908 33.3662 5.10319 33.3662 6.34277C33.3662 7.00814 33.2682 7.59375 33.0723 8.09961C32.8763 8.60091 32.6097 8.99284 32.2725 9.27539C31.6253 9.83138 30.8597 10.1094 29.9756 10.1094C29.5837 10.1094 29.2191 10.0729 28.8818 10V11.2031C29.4378 11.3535 29.7933 11.5267 29.9482 11.7227L29.8115 12.8027H26.291L26.1543 11.7227C26.2728 11.554 26.5303 11.3945 26.9268 11.2441V4.55176C26.5941 4.44238 26.3366 4.28516 26.1543 4.08008ZM29.8389 8.68066C30.3037 8.68066 30.6706 8.47331 30.9395 8.05859C31.2129 7.63932 31.3496 7.0651 31.3496 6.33594C31.3496 5.60221 31.2744 5.10091 31.124 4.83203C30.9736 4.56315 30.7025 4.42871 30.3105 4.42871C29.709 4.42871 29.2327 4.56771 28.8818 4.8457V8.57129C29.1689 8.64421 29.488 8.68066 29.8389 8.68066ZM37.4541 10.1094C36.333 10.1094 35.4899 9.81087 34.9248 9.21387C34.3597 8.61686 34.0771 7.7487 34.0771 6.60938C34.0771 5.92122 34.1751 5.32878 34.3711 4.83203C34.5671 4.33073 34.8337 3.94336 35.1709 3.66992C35.8226 3.15039 36.5837 2.89062 37.4541 2.89062C38.0329 2.89062 38.5205 2.98633 38.917 3.17773C39.318 3.36458 39.6211 3.68132 39.8262 4.12793C40.0358 4.56999 40.1406 5.17383 40.1406 5.93945C40.1406 6.61393 39.8079 6.95117 39.1426 6.95117H36.1074C36.1439 7.53906 36.2943 7.95378 36.5586 8.19531C36.8275 8.43685 37.2513 8.55762 37.8301 8.55762C38.1445 8.55762 38.4453 8.52116 38.7324 8.44824C39.0241 8.37077 39.236 8.29557 39.3682 8.22266L39.5664 8.11328L39.9834 9.22754C39.9333 9.28678 39.8535 9.36882 39.7441 9.47363C39.6712 9.54199 39.5231 9.6263 39.2998 9.72656C39.0765 9.82682 38.8031 9.91569 38.4795 9.99316C38.1605 10.0706 37.8187 10.1094 37.4541 10.1094ZM36.1211 5.78906L38.3359 5.7002C38.3542 5.58626 38.3633 5.42904 38.3633 5.22852C38.3633 5.04167 38.2881 4.84342 38.1377 4.63379C37.9873 4.42415 37.7275 4.31934 37.3584 4.31934C36.9893 4.31934 36.7067 4.43099 36.5107 4.6543C36.3148 4.8776 36.1849 5.25586 36.1211 5.78906Z" fill="black"/>
</svg>
