<svg width="25" height="20" viewBox="0 0 25 20" fill="none" xmlns="http://www.w3.org/2000/svg">
<path d="M20.8333 8.33333L21.458 9.1142L22.4341 8.33333L21.458 7.55246L20.8333 8.33333ZM3.16665 15C3.16665 15.5523 3.61436 16 4.16665 16C4.71893 16 5.16665 15.5523 5.16665 15L3.16665 15ZM16.2497 13.2809L21.458 9.1142L20.2086 7.55246L15.0003 11.7191L16.2497 13.2809ZM21.458 7.55246L16.2497 3.3858L15.0003 4.94754L20.2086 9.1142L21.458 7.55246ZM20.8333 7.33333L10.1666 7.33333L10.1666 9.33333L20.8333 9.33333L20.8333 7.33333ZM3.16665 14.3333L3.16665 15L5.16665 15L5.16665 14.3333L3.16665 14.3333ZM10.1666 7.33333C6.30066 7.33333 3.16665 10.4673 3.16665 14.3333L5.16665 14.3333C5.16665 11.5719 7.40523 9.33333 10.1666 9.33333L10.1666 7.33333Z" fill="#33363F"/>
</svg>
